# xmcd CD database file
#
# Track frame offsets:
#	150
#	16352
#	29952
#	42832
#	55812
#	68377
#	85720
#	100404
#	116327
#	136780
#	156090
#	173195
#
# Disc length: 2522 seconds
#
# Revision: 1
# Processed by: cddbd v1.5.1PL0 Copyright (c) Steve Scherf et al.
# Submitted via: CDex 1.51
#
DISCID=9309d80c
DTITLE=Various Artist - 50 Years of County Hits Gold: 1990-1994
DYEAR=2003
DGENRE=Country
TTITLE0=Jukebox in my Mind
TTITLE1=Money in the Bank
TTITLE2=If Bubba Can Dance (I Can Too)
TTITLE3=Mi Vida Loca (My Crazy Life)
TTITLE4=There Ain't Nothin Wrong with the Radio
TTITLE5=Come Next Monday
TTITLE6=Back in My Younger Days
TTITLE7=Daddy's Come Around
TTITLE8=Now I Know
TTITLE9=I'm Holding My Own
TTITLE10=I Don't Call Him Daddy
TTITLE11=Nobody's Talking
EXTD=YEAR: 2003
EXTT0=
EXTT1=
EXTT2=
EXTT3=
EXTT4=
EXTT5=
EXTT6=
EXTT7=
EXTT8=
EXTT9=
EXTT10=
EXTT11=
PLAYORDER=
